<svg width="35" height="35" viewBox="0 0 35 35" fill="none"
  xmlns="http://www.w3.org/2000/svg">
  <path d="M25.868 18.0744C25.8783 16.5807 25.4886 15.1115 24.7394 13.8193C23.9901 12.527 22.9087 11.4589 21.6072 10.7257C20.3058 9.99258 18.8318 9.62115 17.3384 9.65C15.8449 9.67885 14.3864 10.1069 13.1142 10.8898C11.8421 11.6727 10.8027 12.7818 10.1039 14.102C9.40511 15.4222 9.07245 16.9054 9.14045 18.3976C9.20845 19.8898 9.67462 21.3366 10.4906 22.5878C11.9476 24.822 12.8103 25.6434 12.8103 28.3023C12.8103 28.5489 12.9082 28.7854 13.0826 28.9597C13.257 29.1341 13.4935 29.2321 13.7401 29.2321H21.2595C21.5061 29.2321 21.7426 29.1341 21.917 28.9597C22.0914 28.7854 22.1893 28.5489 22.1893 28.3023C22.1893 25.5793 23.1543 24.7709 24.6018 22.4551C25.423 21.141 25.8615 19.624 25.868 18.0744Z" fill="white" fill-opacity="0.5"/>
  <path d="M14.159 29.2322H20.841V31.659C20.841 33.5042 19.3452 35 17.5 35C15.6548 35 14.159 33.5042 14.159 31.659V29.2322Z" fill="#7A7A7A" fill-opacity="0.5"/>
</svg>
